<svg width="366" height="540" viewBox="0 0 366 540" fill="none" xmlns="http://www.w3.org/2000/svg">
<g filter="url(#filter0_d_)">
<mask id="mask0_" style="mask-type:alpha" maskUnits="userSpaceOnUse" x="4" y="0" width="358" height="540">
<rect x="4" width="358" height="540" fill="#202024"/>
</mask>
<g mask="url(#mask0_)">
<path d="M362 61.4924V-396.824L182.5 -500L3 -396.824V61.4924L182.5 164.674L362 61.4924Z" fill="url(#paint0_linear_)"/>
<g style="mix-blend-mode:luminosity" opacity="0.4">
<path d="M4.80078 -40.6504V62.1591L94.1006 113.569L183.4 62.1591V-40.6504L94.1006 -92.0601L4.80078 -40.6504Z" fill="url(#paint1_linear_)"/>
<path d="M4.80078 -143.465V-40.6555L94.1006 10.7541L183.4 -40.6555V-143.465L94.1006 -194.875L4.80078 -143.465Z" fill="url(#paint2_linear_)"/>
<path d="M362 -143.465V-40.6555L272.7 10.7541L183.4 -40.6555V-143.465L272.7 -194.875L362 -143.465Z" fill="url(#paint3_linear_)"/>
<path d="M272.7 113.59V10.7808L183.4 -40.6289L94.1006 10.7808L94.1006 113.59L183.4 165L272.7 113.59Z" fill="url(#paint4_linear_)"/>
</g>
</g>
</g>
<defs>
<filter id="filter0_d_" x="0" y="0" width="366" height="173" filterUnits="userSpaceOnUse" color-interpolation-filters="sRGB">
<feFlood flood-opacity="0" result="BackgroundImageFix"/>
<feColorMatrix in="SourceAlpha" type="matrix" values="0 0 0 0 0 0 0 0 0 0 0 0 0 0 0 0 0 0 127 0" result="hardAlpha"/>
<feOffset dy="4"/>
<feGaussianBlur stdDeviation="2"/>
<feComposite in2="hardAlpha" operator="out"/>
<feColorMatrix type="matrix" values="0 0 0 0 0 0 0 0 0 0 0 0 0 0 0 0 0 0 0.25 0"/>
<feBlend mode="normal" in2="BackgroundImageFix" result="effect1_dropShadow_"/>
<feBlend mode="normal" in="SourceGraphic" in2="effect1_dropShadow_" result="shape"/>
</filter>
<linearGradient id="paint0_linear_" x1="2.99999" y1="-484.234" x2="442.976" y2="-423.679" gradientUnits="userSpaceOnUse">
<stop stop-color="#0000FF"/>
<stop offset="1" stop-color="#FF008E"/>
</linearGradient>
<linearGradient id="paint1_linear_" x1="94.1006" y1="108.84" x2="5.1853" y2="-42.8961" gradientUnits="userSpaceOnUse">
<stop stop-color="#E34B97"/>
<stop offset="1" stop-color="#FF008E" stop-opacity="0"/>
</linearGradient>
<linearGradient id="paint2_linear_" x1="94.1006" y1="6.02582" x2="5.18528" y2="-145.711" gradientUnits="userSpaceOnUse">
<stop stop-color="#E34B97"/>
<stop offset="1" stop-color="#FF008E" stop-opacity="0"/>
</linearGradient>
<linearGradient id="paint3_linear_" x1="272.7" y1="6.02582" x2="361.615" y2="-145.711" gradientUnits="userSpaceOnUse">
<stop stop-color="#E34B97"/>
<stop offset="1" stop-color="#FF008E" stop-opacity="0"/>
</linearGradient>
<linearGradient id="paint4_linear_" x1="183.4" y1="-35.9006" x2="272.316" y2="115.836" gradientUnits="userSpaceOnUse">
<stop stop-color="#E34B97"/>
<stop offset="1" stop-color="#FF008E" stop-opacity="0"/>
</linearGradient>
</defs>
</svg>
